<svg width="16" height="16" viewBox="0 0 16 16" fill="none" xmlns="http://www.w3.org/2000/svg">
<g clip-path="url(#clip0_1_348)">
<path d="M12.25 0H3.75C1.67893 0 0 1.67893 0 3.75V12.25C0 14.3211 1.67893 16 3.75 16H12.25C14.3211 16 16 14.3211 16 12.25V3.75C16 1.67893 14.3211 0 12.25 0Z" fill="#242938"/>
<path d="M7.59075 1.75342C7.56387 1.75586 7.47831 1.76442 7.40131 1.77048C5.62593 1.93054 3.96293 2.88854 2.90962 4.36092C2.32318 5.17961 1.948 6.10823 1.80631 7.09192C1.75625 7.43529 1.75012 7.53673 1.75012 8.00223C1.75012 8.46779 1.75625 8.56923 1.80637 8.91254C2.146 11.2598 3.81637 13.232 6.08175 13.9627C6.48743 14.0934 6.91506 14.1826 7.40137 14.2364C7.59081 14.2571 8.40943 14.2571 8.59887 14.2364C9.43831 14.1435 10.1494 13.9358 10.8508 13.5777C10.9583 13.5228 10.9791 13.5081 10.9644 13.4959C10.9547 13.4885 10.4964 12.8739 9.94662 12.131L8.94712 10.7809L7.69462 8.92723C7.0055 7.90817 6.43856 7.07479 6.43362 7.07479C6.42875 7.07361 6.42387 7.89717 6.42143 8.90279C6.41775 10.6635 6.41656 10.7344 6.39456 10.7759C6.36281 10.8358 6.33837 10.8602 6.287 10.8872C6.24793 10.9067 6.21368 10.9104 6.02918 10.9104H5.81781L5.76156 10.8749C5.72673 10.8531 5.69845 10.8223 5.67968 10.7857L5.65406 10.7307L5.65656 8.28086L5.66018 5.82973L5.69806 5.78204C5.71762 5.75642 5.75918 5.72342 5.7885 5.70754C5.83856 5.68311 5.85812 5.68067 6.0695 5.68067C6.31881 5.68067 6.36031 5.69042 6.42512 5.76129C6.44343 5.78086 7.12156 6.80236 7.93293 8.03279C8.75435 9.27823 9.57627 10.5233 10.3987 11.7681L11.3884 13.2674L11.4386 13.2344C11.8821 12.946 12.3513 12.5355 12.7227 12.1078C13.5133 11.1999 14.0229 10.0929 14.1939 8.91254C14.244 8.56923 14.2501 8.46779 14.2501 8.00223C14.2501 7.53667 14.244 7.43529 14.1939 7.09192C13.8542 4.74467 12.1839 2.77254 9.9185 2.04186C9.51893 1.91229 9.09375 1.82311 8.61718 1.76936C8.49987 1.75711 7.69218 1.74373 7.59081 1.75348M10.1494 5.53404C10.2081 5.56336 10.2557 5.61954 10.2729 5.67817C10.2826 5.70998 10.2851 6.38936 10.2826 7.92036L10.2789 10.1174L9.89162 9.52348L9.50306 8.92967V7.33267C9.50306 6.30017 9.50793 5.71973 9.51525 5.69161C9.53481 5.62323 9.57756 5.56948 9.63625 5.53767C9.68631 5.51204 9.70469 5.50954 9.8965 5.50954C10.0774 5.50954 10.1091 5.51204 10.1494 5.53404Z" fill="white"/>
</g>
<defs>
<clipPath id="clip0_1_348">
<rect width="16" height="16" fill="white"/>
</clipPath>
</defs>
</svg>
