<svg width="16" height="16" viewBox="0 0 16 16" fill="none" xmlns="http://www.w3.org/2000/svg">
<g clip-path="url(#clip0_1_362)">
<path d="M12.25 0H3.75C1.67893 0 0 1.67893 0 3.75V12.25C0 14.3211 1.67893 16 3.75 16H12.25C14.3211 16 16 14.3211 16 12.25V3.75C16 1.67893 14.3211 0 12.25 0Z" fill="#242938"/>
<path d="M12.7176 9.29294C11.4475 9.55482 11.3553 9.12463 11.3553 9.12463C12.6969 7.13388 13.2581 4.60701 12.7738 3.98869C11.4537 2.30119 9.16811 3.09969 9.12986 3.12038L9.11755 3.12257C8.83839 3.06654 8.55457 3.03695 8.26986 3.03419C7.69505 3.02544 7.25911 3.18494 6.9278 3.43588C6.9278 3.43588 2.85055 1.75632 3.04036 5.54838C3.0808 6.35519 4.19618 11.6568 5.52768 10.0528C6.01811 9.46301 6.4883 8.96769 6.4883 8.96769C6.72124 9.12282 7.00118 9.20194 7.2943 9.17338L7.31711 9.15407C7.3104 9.23003 7.31351 9.30653 7.32636 9.38169C6.98361 9.76488 7.08468 9.83213 6.39911 9.97319C5.70568 10.116 6.11349 10.3704 6.37893 10.4373C6.70149 10.5181 7.44768 10.6324 7.95218 9.92663L7.93193 10.007C8.06643 10.1147 8.16043 10.7071 8.14461 11.2441C8.1288 11.7811 8.11824 12.1494 8.22374 12.4376C8.32924 12.7259 8.43468 13.3737 9.33555 13.1847C10.0884 13.0234 10.4781 12.6046 10.5331 11.9077C10.5717 11.4119 10.6587 11.4849 10.6649 11.0419L10.7352 10.8319C10.8156 10.1595 10.7484 9.94288 11.212 10.0439L11.3249 10.0541C11.6664 10.0694 12.1134 9.99913 12.3752 9.87738C12.9399 9.61551 13.2748 9.17776 12.718 9.29294H12.7176Z" fill="#336791"/>
<path d="M9.12941 3.03722C8.98878 3.08116 11.3988 2.15616 12.769 3.90647C13.2524 4.52478 12.6921 7.05166 11.3504 9.04235M8.00616 9.61147C7.97103 10.8622 8.01497 12.1216 8.13716 12.424C8.25928 12.7263 8.52166 13.3248 9.42297 13.1323C10.1758 12.9711 10.45 12.6586 10.5687 11.9691L10.8468 9.76441L8.00616 9.61147ZM6.92603 3.34178C6.92603 3.34178 2.84609 1.67366 3.03597 5.4656C3.07641 6.27241 4.19172 11.574 5.52328 9.96997C6.00928 9.38416 6.44878 8.92585 6.44878 8.92585L6.92603 3.34178Z" stroke="white" stroke-width="0.314625" stroke-linecap="round" stroke-linejoin="round"/>
<path d="M11.3508 9.0415C11.3508 9.0415 11.4388 9.47218 12.7131 9.20937C13.2699 9.09425 12.9346 9.53193 12.3704 9.79387C11.9072 10.0092 10.8683 10.0641 10.8512 9.7675C10.8073 9.00062 11.3979 9.23356 11.3553 9.0415C11.3166 8.86837 11.052 8.69875 10.878 8.27512C10.7255 7.90593 8.7862 5.0715 11.4159 5.492C11.5126 5.47225 10.7303 2.98718 8.26939 2.95112C5.80845 2.91506 5.88626 5.97675 5.88626 5.97675" stroke="white" stroke-width="0.314625" stroke-linecap="round" stroke-linejoin="bevel"/>
<path d="M7.31746 9.30431C6.97471 9.6875 7.07577 9.75475 6.39027 9.89581C5.69677 10.0386 6.10464 10.2931 6.37002 10.3599C6.69258 10.4407 7.43877 10.555 7.94327 9.84875C8.09708 9.63343 7.94239 9.29069 7.73146 9.20369C7.62952 9.1615 7.49327 9.10875 7.31839 9.30475L7.31746 9.30431Z" stroke="white" stroke-width="0.314625" stroke-linejoin="round"/>
<path d="M7.29508 9.29768C7.2599 9.07224 7.3689 8.80462 7.48533 8.49087C7.66027 8.02068 8.06371 7.55043 7.74115 6.05762C7.50077 4.94574 5.88665 5.82599 5.88665 5.97674C5.88665 6.12749 5.95958 6.74143 5.86027 7.45549C5.72977 8.38805 6.45352 9.17643 7.28671 9.09599" stroke="white" stroke-width="0.314625" stroke-linecap="round" stroke-linejoin="round"/>
<path d="M6.91103 5.95439C6.90353 6.00576 7.00547 6.14333 7.13778 6.16176C7.27003 6.18026 7.38297 6.07301 7.39047 6.02114C7.39791 5.96926 7.29597 5.91301 7.16372 5.89458C7.03147 5.87614 6.9176 5.90339 6.91103 5.95439Z" fill="white" stroke="white" stroke-width="0.105"/>
<path d="M10.9382 5.84941C10.9452 5.90078 10.8437 6.03828 10.7115 6.05678C10.5792 6.07522 10.4654 5.96803 10.4588 5.91616C10.4522 5.86428 10.5533 5.80803 10.6856 5.7896C10.8178 5.77116 10.9316 5.79841 10.9382 5.84941Z" fill="white" stroke="white" stroke-width="0.0523125"/>
<path d="M11.411 5.49292C11.433 5.89723 11.324 6.17186 11.3099 6.60211C11.2897 7.22698 11.6079 7.94242 11.1284 8.65873" stroke="white" stroke-width="0.314625" stroke-linecap="round" stroke-linejoin="round"/>
</g>
<defs>
<clipPath id="clip0_1_362">
<rect width="16" height="16" fill="white"/>
</clipPath>
</defs>
</svg>
